<?xml version="1.0" encoding="UTF-8"?>
<!DOCTYPE svg PUBLIC "-//W3C//DTD SVG 1.1//EN" "http://www.w3.org/Graphics/SVG/1.1/DTD/svg11.dtd">
<svg xmlns="http://www.w3.org/2000/svg" version="1.1" width="1000px" height="700px" style="shape-rendering:geometricPrecision; text-rendering:geometricPrecision; image-rendering:optimizeQuality; fill-rule:evenodd; clip-rule:evenodd" xmlns:xlink="http://www.w3.org/1999/xlink">
<g><path style="opacity:0.087" fill="#000000" d="M 441.5,17.5 C 440.5,17.5 439.5,17.5 438.5,17.5C 439.74,15.0155 440.74,15.0155 441.5,17.5 Z"/></g>
<g><path style="opacity:0.996" fill="#fcfafd" d="M 438.5,17.5 C 439.5,17.5 440.5,17.5 441.5,17.5C 437.284,74.5228 432.784,131.523 428,188.5C 425.543,197.24 420.71,204.406 413.5,210C 381.665,229.75 349.998,249.75 318.5,270C 332.721,272.506 346.721,271.673 360.5,267.5C 360.833,268.167 361.167,268.833 361.5,269.5C 351.928,278.794 340.595,285.294 327.5,289C 321.568,290.65 315.568,291.983 309.5,293C 297.82,293.876 286.154,294.876 274.5,296C 261.489,297.923 250.322,303.423 241,312.5C 239.833,314.333 238.667,316.167 237.5,318C 253.984,310.541 271.317,305.541 289.5,303C 298.827,302.5 308.161,302.334 317.5,302.5C 314.267,321.443 303.6,334.276 285.5,341C 278.65,343.086 271.65,344.42 264.5,345C 281.34,355.518 295.84,368.684 308,384.5C 308.49,385.793 308.657,387.127 308.5,388.5C 304.393,388.518 300.393,389.185 296.5,390.5C 316.814,407.79 331.148,429.123 339.5,454.5C 334.225,454.362 329.059,453.695 324,452.5C 326.244,465.064 328.244,477.731 330,490.5C 331.318,506.336 330.318,522.002 327,537.5C 326.667,537.833 326.333,538.167 326,538.5C 320.749,535.589 315.749,532.256 311,528.5C 307,560.558 293.833,588.058 271.5,611C 269.833,611.667 268.167,611.667 266.5,611C 263.64,608.64 260.64,606.473 257.5,604.5C 250.145,630.395 236.812,652.561 217.5,671C 215.667,672.167 213.833,673.333 212,674.5C 213.861,665.641 214.527,656.641 214,647.5C 213.202,644.107 212.202,640.774 211,637.5C 200.295,620.724 192.295,602.724 187,583.5C 185.59,575.889 184.59,568.223 184,560.5C 179.817,565.866 176.983,571.866 175.5,578.5C 174.325,578.719 173.325,578.386 172.5,577.5C 158.86,557.627 154.194,535.96 158.5,512.5C 153.118,515.882 148.785,520.215 145.5,525.5C 144.833,525.167 144.167,524.833 143.5,524.5C 139.47,505.123 142.637,486.789 153,469.5C 163.285,455.763 170.785,440.596 175.5,424C 174.96,418.127 171.794,414.96 166,414.5C 150.52,419.479 135.02,419.646 119.5,415C 107.62,410.457 99.9536,402.124 96.5,390C 96.8333,389.167 97.1667,388.333 97.5,387.5C 114.291,376.353 130.457,364.353 146,351.5C 147.275,349.283 148.275,346.949 149,344.5C 150.119,338.449 151.453,332.449 153,326.5C 154.793,323.705 156.96,321.205 159.5,319C 178.6,307.562 197.433,295.729 216,283.5C 216.758,279.671 215.758,276.338 213,273.5C 205.978,267.476 199.311,261.143 193,254.5C 189.561,245.738 189.895,237.072 194,228.5C 200.705,212.189 207.871,196.189 215.5,180.5C 216.167,180.833 216.833,181.167 217.5,181.5C 215.507,195.793 213.84,210.126 212.5,224.5C 211.906,237.396 217.572,246.23 229.5,251C 266.335,260.723 295.502,249.889 317,218.5C 323.985,205.703 324.319,192.703 318,179.5C 315.978,175.997 313.811,172.663 311.5,169.5C 312.167,169.5 312.5,169.167 312.5,168.5C 325.67,171.834 337.17,178.168 347,187.5C 350.23,192.355 351.73,197.688 351.5,203.5C 351.357,208.714 350.524,213.714 349,218.5C 361.629,208.207 373.962,197.54 386,186.5C 393.203,175.676 396.703,163.676 396.5,150.5C 395.881,144.377 392.548,140.544 386.5,139C 372.586,136.752 358.92,133.752 345.5,130C 361.741,124.854 378.075,119.854 394.5,115C 402.866,110.303 408.699,103.469 412,94.5C 420.747,68.7567 429.581,43.09 438.5,17.5 Z"/></g>
<g><path style="opacity:0.095" fill="#161616" d="M 312.5,168.5 C 312.5,169.167 312.167,169.5 311.5,169.5C 310.957,169.44 310.624,169.107 310.5,168.5C 311.257,167.227 311.923,167.227 312.5,168.5 Z"/></g>
<g><path style="opacity:0.212" fill="#0b0b0b" d="M 217.5,181.5 C 216.833,181.167 216.167,180.833 215.5,180.5C 215.628,178.91 216.295,177.577 217.5,176.5C 218.434,178.095 218.434,179.761 217.5,181.5 Z"/></g>
<g><path style="opacity:0.051" fill="#161616" d="M 361.5,269.5 C 361.167,268.833 360.833,268.167 360.5,267.5C 361.117,267.389 361.617,267.056 362,266.5C 362.74,267.749 362.573,268.749 361.5,269.5 Z"/></g>
<g><path style="opacity:1" fill="#170e0e" d="M 174.5,338.5 C 178.846,338.334 183.179,338.501 187.5,339C 189.396,340.808 189.896,342.975 189,345.5C 184.509,350.259 179.009,351.759 172.5,350C 170.556,347.847 170.056,345.347 171,342.5C 172.376,341.295 173.542,339.962 174.5,338.5 Z"/></g>
<g><path style="opacity:0.995" fill="#fcfafd" d="M 436.5,470.5 C 436.5,463.167 436.5,455.833 436.5,448.5C 457.5,448.5 478.5,448.5 499.5,448.5C 499.173,457.682 499.507,466.682 500.5,475.5C 490.04,501.829 470.54,515.162 442,515.5C 396.102,511.418 376.102,486.418 382,440.5C 388.135,416.033 403.635,401.533 428.5,397C 451.179,392.792 471.012,398.292 488,413.5C 493.378,419.923 496.878,427.256 498.5,435.5C 487.162,435.667 475.828,435.5 464.5,435C 454.183,423.339 441.85,420.673 427.5,427C 413.928,436.405 409.095,449.238 413,465.5C 419.184,483.324 431.684,490.824 450.5,488C 460.492,486.006 467.492,480.339 471.5,471C 459.838,470.5 448.171,470.333 436.5,470.5 Z"/></g>
<g><path style="opacity:0.992" fill="#fdfbfe" d="M 565.5,397.5 C 574.986,398.494 584.652,398.827 594.5,398.5C 594.5,413.5 594.5,428.5 594.5,443.5C 609.912,443.832 624.579,443.499 638.5,442.5C 638.171,427.324 638.504,412.324 639.5,397.5C 648.986,398.494 658.652,398.827 668.5,398.5C 668.5,436.833 668.5,475.167 668.5,513.5C 658.652,513.173 648.986,513.506 639.5,514.5C 638.504,498.675 638.17,482.675 638.5,466.5C 624.088,466.184 609.755,466.518 595.5,467.5C 594.501,482.088 594.168,497.422 594.5,513.5C 584.652,513.173 574.986,513.506 565.5,514.5C 564.167,475.5 564.167,436.5 565.5,397.5 Z"/></g>
<g><path style="opacity:0.752" fill="#c8c6c8" d="M 724.5,397.5 C 736.345,397.172 748.012,397.505 759.5,398.5C 759.565,398.938 759.399,399.272 759,399.5C 747.402,398.843 735.902,398.176 724.5,397.5 Z"/></g>
<g><path style="opacity:0.996" fill="#fdfdfd" d="M 871.5,397.5 C 899.311,401.129 911.145,416.796 907,444.5C 902.859,456.641 894.693,464.807 882.5,469C 891,482.833 899.5,496.667 908,510.5C 908.49,511.793 908.657,513.127 908.5,514.5C 897.162,514.667 885.828,514.5 874.5,514C 866.207,499.915 858.04,485.748 850,471.5C 848.172,470.248 846.339,470.248 844.5,471.5C 843.501,484.754 843.168,498.754 843.5,513.5C 833.833,513.5 824.167,513.5 814.5,513.5C 814.5,475.167 814.5,436.833 814.5,398.5C 833.674,398.83 852.674,398.497 871.5,397.5 Z M 844.5,422.5 C 852.917,422.094 861.251,422.594 869.5,424C 876.926,429.42 878.426,436.254 874,444.5C 872.421,446.041 870.587,447.208 868.5,448C 860.571,449.363 852.571,449.863 844.5,449.5C 844.5,440.5 844.5,431.5 844.5,422.5 Z"/></g>
<g><path style="opacity:0.553" fill="#d6d4d7" d="M 514.5,397.5 C 524.833,397.5 535.167,397.5 545.5,397.5C 545.5,436.5 545.5,475.5 545.5,514.5C 535.167,514.5 524.833,514.5 514.5,514.5C 514.5,475.5 514.5,436.5 514.5,397.5 Z"/></g>
<g><path style="opacity:1" fill="#fdfcfe" d="M 515.5,398.5 C 525.167,398.5 534.833,398.5 544.5,398.5C 544.5,436.833 544.5,475.167 544.5,513.5C 534.833,513.5 525.167,513.5 515.5,513.5C 515.5,475.167 515.5,436.833 515.5,398.5 Z"/></g>
<g><path style="opacity:0.619" fill="#cdcbcd" d="M 565.5,397.5 C 575.5,397.5 585.5,397.5 595.5,397.5C 595.5,412.5 595.5,427.5 595.5,442.5C 609.833,442.5 624.167,442.5 638.5,442.5C 624.579,443.499 609.912,443.832 594.5,443.5C 594.5,428.5 594.5,413.5 594.5,398.5C 584.652,398.827 574.986,398.494 565.5,397.5 Z"/></g>
<g><path style="opacity:0.682" fill="#cbcacc" d="M 639.5,397.5 C 649.5,397.5 659.5,397.5 669.5,397.5C 669.5,436.5 669.5,475.5 669.5,514.5C 659.5,514.5 649.5,514.5 639.5,514.5C 648.986,513.506 658.652,513.173 668.5,513.5C 668.5,475.167 668.5,436.833 668.5,398.5C 658.652,398.827 648.986,398.494 639.5,397.5 Z"/></g>
<g><path style="opacity:0.992" fill="#fcfafd" d="M 724.5,397.5 C 735.902,398.176 747.402,398.843 759,399.5C 759.399,399.272 759.565,398.938 759.5,398.5C 774.353,436.892 788.687,475.559 802.5,514.5C 791.5,514.5 780.5,514.5 769.5,514.5C 767.5,507.833 765.5,501.167 763.5,494.5C 748.833,494.5 734.167,494.5 719.5,494.5C 717.908,500.943 715.908,507.276 713.5,513.5C 702.854,514.499 692.187,514.832 681.5,514.5C 694.857,475.09 709.191,436.09 724.5,397.5 Z M 741.5,433.5 C 745.803,445.402 750.137,457.402 754.5,469.5C 745.853,470.665 737.186,470.832 728.5,470C 732.738,457.784 737.072,445.617 741.5,433.5 Z"/></g>
<g><path style="opacity:0.37" fill="#e3e3e3" d="M 871.5,397.5 C 852.674,398.497 833.674,398.83 814.5,398.5C 814.5,436.833 814.5,475.167 814.5,513.5C 824.167,513.5 833.833,513.5 843.5,513.5C 843.168,498.754 843.501,484.754 844.5,471.5C 844.5,485.833 844.5,500.167 844.5,514.5C 834.167,514.5 823.833,514.5 813.5,514.5C 813.5,475.5 813.5,436.5 813.5,397.5C 832.833,397.5 852.167,397.5 871.5,397.5 Z"/></g>
<g><path style="opacity:0.517" fill="#d2d0d3" d="M 500.5,475.5 C 499.507,466.682 499.173,457.682 499.5,448.5C 478.5,448.5 457.5,448.5 436.5,448.5C 436.5,455.833 436.5,463.167 436.5,470.5C 435.508,463.018 435.175,455.352 435.5,447.5C 457.167,447.5 478.833,447.5 500.5,447.5C 500.5,456.833 500.5,466.167 500.5,475.5 Z"/></g>
<g><path style="opacity:1" fill="#120d0d" d="M 211.5,450.5 C 219.189,450.613 226.855,451.113 234.5,452C 237.696,452.396 240.53,453.562 243,455.5C 243.828,459.871 243.661,464.205 242.5,468.5C 232.9,463.01 222.566,461.177 211.5,463C 199.043,465.386 194.21,472.886 197,485.5C 198.464,492.298 202.631,496.464 209.5,498C 215.157,498.499 220.824,498.666 226.5,498.5C 226.5,495.167 226.5,491.833 226.5,488.5C 222.563,488.793 218.73,488.46 215,487.5C 214.333,484.167 214.333,480.833 215,477.5C 216.734,476.751 218.567,476.251 220.5,476C 239.195,475.128 257.862,475.462 276.5,477C 288.168,481.495 292.668,489.995 290,502.5C 288.055,509.612 283.555,514.279 276.5,516.5C 281.292,523.79 286.959,530.29 293.5,536C 286.167,536.667 278.833,536.667 271.5,536C 264.485,526.323 257.485,516.656 250.5,507C 250.645,506.228 250.978,505.561 251.5,505C 258.274,504.922 264.941,504.255 271.5,503C 272,502.5 272.5,502 273,501.5C 273.667,498.167 273.667,494.833 273,491.5C 272.097,490.299 270.931,489.465 269.5,489C 260.84,488.5 252.173,488.334 243.5,488.5C 243.666,494.509 243.499,500.509 243,506.5C 227.564,511.525 212.064,511.692 196.5,507C 181.479,497.607 176.979,484.44 183,467.5C 187.094,459.416 193.594,454.25 202.5,452C 205.695,451.819 208.695,451.319 211.5,450.5 Z"/></g>
<g><path style="opacity:0.62" fill="#cfcdd0" d="M 595.5,467.5 C 595.5,483.167 595.5,498.833 595.5,514.5C 585.5,514.5 575.5,514.5 565.5,514.5C 574.986,513.506 584.652,513.173 594.5,513.5C 594.168,497.422 594.501,482.088 595.5,467.5 Z"/></g>
<g><path style="opacity:0.125" fill="#171717" d="M 143.5,524.5 C 144.167,524.833 144.833,525.167 145.5,525.5C 144.699,527.793 144.032,527.46 143.5,524.5 Z"/></g>
</svg>
