<?xml version="1.0" encoding="UTF-8"?>
<!DOCTYPE svg PUBLIC "-//W3C//DTD SVG 1.1//EN" "http://www.w3.org/Graphics/SVG/1.1/DTD/svg11.dtd">
<svg xmlns="http://www.w3.org/2000/svg" version="1.1" width="1000px" height="700px" style="shape-rendering:geometricPrecision; text-rendering:geometricPrecision; image-rendering:optimizeQuality; fill-rule:evenodd; clip-rule:evenodd" xmlns:xlink="http://www.w3.org/1999/xlink">
<g><path style="opacity:0.97" fill="#000000" d="M 439.5,15.5 C 440.497,15.4701 441.164,15.9701 441.5,17C 437.202,71.8081 433.035,126.641 429,181.5C 427.179,194.639 420.679,204.805 409.5,212C 378.668,231.584 347.668,250.917 316.5,270C 326.13,271.411 335.797,271.744 345.5,271C 351.304,270.508 356.804,269.008 362,266.5C 360.073,270.779 356.906,274.279 352.5,277C 330.288,289.819 306.288,295.819 280.5,295C 261.874,295.808 247.208,303.641 236.5,318.5C 236.833,318.833 237.167,319.167 237.5,319.5C 262.609,306.678 289.276,301.011 317.5,302.5C 313.569,321.273 302.569,334.106 284.5,341C 277.311,343.104 269.977,344.438 262.5,345C 280.446,355.274 295.613,368.774 308,385.5C 308.617,386.449 308.451,387.282 307.5,388C 303.128,388.421 298.795,389.088 294.5,390C 315.128,407.136 330.128,428.302 339.5,453.5C 333.816,453.605 328.149,453.605 322.5,453.5C 331.106,480.801 332.606,508.468 327,536.5C 326.667,537.167 326.333,537.833 326,538.5C 321,534.833 316,531.167 311,527.5C 307.104,555.56 296.438,580.56 279,602.5C 275.953,605.883 272.62,608.883 269,611.5C 264.728,608.899 260.728,605.899 257,602.5C 249.678,631.45 234.678,655.45 212,674.5C 213.27,667.956 214.104,661.289 214.5,654.5C 214.455,650.111 213.955,645.777 213,641.5C 206.318,628.136 199.651,614.802 193,601.5C 187.828,587.972 184.828,573.972 184,559.5C 179.249,565.002 176.083,571.335 174.5,578.5C 158.724,558.672 154.057,536.505 160.5,512C 152.789,514.377 147.622,519.544 145,527.5C 141.83,519.84 140.83,511.84 142,503.5C 142.823,497.383 144.157,491.383 146,485.5C 154.633,469.52 163.3,453.52 172,437.5C 175.039,431.003 175.706,424.336 174,417.5C 171.74,415.523 169.073,414.523 166,414.5C 150.855,418.213 135.689,418.38 120.5,415C 107.916,410.099 100.083,401.265 97,388.5C 110.167,379.333 123.333,370.167 136.5,361C 142.104,357.397 146.271,352.563 149,346.5C 149.927,340.078 151.261,333.745 153,327.5C 155.128,324.37 157.628,321.537 160.5,319C 179.252,307.876 197.752,296.376 216,284.5C 216.912,280.548 216.245,276.881 214,273.5C 207.667,267.833 201.333,262.167 195,256.5C 192.412,252.57 190.912,248.236 190.5,243.5C 191.42,236.906 193.253,230.573 196,224.5C 202.909,208.351 210.076,192.351 217.5,176.5C 216.676,188.426 215.176,200.426 213,212.5C 207.831,238.34 218.331,252.507 244.5,255C 279.274,256.699 304.774,242.199 321,211.5C 325.283,195.561 321.95,181.561 311,169.5C 310.312,168.668 310.479,168.002 311.5,167.5C 319.896,170.531 327.896,174.365 335.5,179C 352.205,189.121 355.872,202.787 346.5,220C 346.833,220.167 347.167,220.333 347.5,220.5C 360.24,209.382 373.074,198.382 386,187.5C 389.721,182.725 392.388,177.391 394,171.5C 394.927,164.677 395.76,157.844 396.5,151C 396.94,144.438 393.94,140.438 387.5,139C 373.293,136.612 359.293,133.612 345.5,130C 361.489,125.336 377.489,120.669 393.5,116C 404.008,110.499 410.841,101.999 414,90.5C 422.348,65.439 430.848,40.439 439.5,15.5 Z"/></g>
<g><path style="opacity:1" fill="#eeeeee" d="M 175.5,338.5 C 179.514,338.334 183.514,338.501 187.5,339C 190.253,343.873 188.92,347.54 183.5,350C 179.375,350.854 175.375,350.52 171.5,349C 169.439,344.186 170.772,340.686 175.5,338.5 Z"/></g>
<g><path style="opacity:0.937" fill="#000000" d="M 429.5,396.5 C 446.963,394.118 463.296,397.285 478.5,406C 488.468,413.142 495.135,422.642 498.5,434.5C 487.167,435.833 475.833,435.833 464.5,434.5C 457.416,425.238 448.082,421.738 436.5,424C 419.893,427.788 411.559,438.288 411.5,455.5C 413.449,480.938 427.116,491.772 452.5,488C 461.66,485.754 467.993,480.254 471.5,471.5C 459.518,470.501 447.518,470.168 435.5,470.5C 435.5,462.833 435.5,455.167 435.5,447.5C 457.167,447.5 478.833,447.5 500.5,447.5C 504.844,478.638 492.511,500.138 463.5,512C 441.214,518.374 420.547,515.041 401.5,502C 382.679,484.229 376.513,462.729 383,437.5C 390.58,414.748 406.08,401.082 429.5,396.5 Z"/></g>
<g><path style="opacity:0.924" fill="#000000" d="M 514.5,397.5 C 524.833,397.5 535.167,397.5 545.5,397.5C 545.5,436.5 545.5,475.5 545.5,514.5C 535.167,514.5 524.833,514.5 514.5,514.5C 514.5,475.5 514.5,436.5 514.5,397.5 Z"/></g>
<g><path style="opacity:0.943" fill="#000000" d="M 564.5,397.5 C 574.833,397.5 585.167,397.5 595.5,397.5C 595.5,412.5 595.5,427.5 595.5,442.5C 610.167,442.5 624.833,442.5 639.5,442.5C 639.5,427.5 639.5,412.5 639.5,397.5C 649.5,397.5 659.5,397.5 669.5,397.5C 669.5,436.5 669.5,475.5 669.5,514.5C 659.5,514.5 649.5,514.5 639.5,514.5C 639.5,498.5 639.5,482.5 639.5,466.5C 624.833,466.5 610.167,466.5 595.5,466.5C 595.5,482.5 595.5,498.5 595.5,514.5C 585.167,514.5 574.833,514.5 564.5,514.5C 564.5,475.5 564.5,436.5 564.5,397.5 Z"/></g>
<g><path style="opacity:0.943" fill="#000000" d="M 724.5,397.5 C 736.167,397.5 747.833,397.5 759.5,397.5C 773.426,436.274 787.76,474.941 802.5,513.5C 791.849,514.666 781.182,514.832 770.5,514C 768.005,507.183 765.505,500.35 763,493.5C 748.667,494.833 734.333,494.833 720,493.5C 717.24,500.344 715.073,507.344 713.5,514.5C 702.833,514.5 692.167,514.5 681.5,514.5C 695.241,475.276 709.574,436.276 724.5,397.5 Z M 740.5,432.5 C 741.497,432.47 742.164,432.97 742.5,434C 746.638,446.082 750.971,458.082 755.5,470C 746.506,470.5 737.506,470.666 728.5,470.5C 732.7,457.899 736.7,445.233 740.5,432.5 Z"/></g>
<g><path style="opacity:0.94" fill="#000000" d="M 813.5,397.5 C 835.206,397.068 856.873,397.568 878.5,399C 902.479,406.113 911.646,421.946 906,446.5C 901.425,457.246 893.592,464.246 882.5,467.5C 890.2,482.559 898.7,497.226 908,511.5C 908.483,512.448 908.649,513.448 908.5,514.5C 897.147,514.832 885.814,514.499 874.5,513.5C 866.413,499.662 858.58,485.662 851,471.5C 848.959,470.577 846.792,470.244 844.5,470.5C 844.5,485.167 844.5,499.833 844.5,514.5C 834.167,514.5 823.833,514.5 813.5,514.5C 813.5,475.5 813.5,436.5 813.5,397.5 Z M 844.5,422.5 C 853.25,422.09 861.916,422.59 870.5,424C 874.9,426.57 876.9,430.404 876.5,435.5C 877.139,441.393 874.806,445.559 869.5,448C 861.251,449.406 852.917,449.906 844.5,449.5C 844.5,440.5 844.5,431.5 844.5,422.5 Z"/></g>
<g><path style="opacity:1" fill="#f8f8f8" d="M 242.5,454.5 C 242.818,459.032 242.485,463.366 241.5,467.5C 230.753,462.202 219.42,460.702 207.5,463C 198.118,467.626 194.618,475.126 197,485.5C 198.771,492.605 203.271,497.105 210.5,499C 215.823,499.499 221.156,499.666 226.5,499.5C 226.5,495.5 226.5,491.5 226.5,487.5C 222.833,487.5 219.167,487.5 215.5,487.5C 215.5,484.167 215.5,480.833 215.5,477.5C 217.099,477.768 218.432,477.434 219.5,476.5C 238.17,476.333 256.836,476.5 275.5,477C 283.781,478.446 288.447,483.279 289.5,491.5C 289.563,496.203 289.229,500.87 288.5,505.5C 286.182,511.345 281.849,514.845 275.5,516C 278.879,520.59 282.379,525.09 286,529.5C 288.383,532.273 291.217,534.439 294.5,536C 286.833,536.667 279.167,536.667 271.5,536C 263.823,526.181 256.823,516.015 250.5,505.5C 256.176,505.666 261.843,505.499 267.5,505C 273.487,502.86 275.654,498.693 274,492.5C 272.603,490.93 271.103,489.596 269.5,488.5C 260.682,487.507 251.682,487.173 242.5,487.5C 242.5,493.833 242.5,500.167 242.5,506.5C 227.32,511.506 211.987,511.672 196.5,507C 179.857,496.05 176.024,481.55 185,463.5C 193.254,454.192 203.587,450.192 216,451.5C 225.049,451.158 233.882,452.158 242.5,454.5 Z"/></g>
<g><path style="opacity:1" fill="#9f9f9f" d="M 242.5,454.5 C 243.814,459.348 243.814,464.348 242.5,469.5C 241.702,469.043 241.369,468.376 241.5,467.5C 242.485,463.366 242.818,459.032 242.5,454.5 Z"/></g>
<g><path style="opacity:1" fill="#898989" d="M 219.5,476.5 C 218.432,477.434 217.099,477.768 215.5,477.5C 215.5,480.833 215.5,484.167 215.5,487.5C 214.518,484.038 214.185,480.371 214.5,476.5C 216.167,476.5 217.833,476.5 219.5,476.5 Z"/></g>
<g><path style="opacity:1" fill="#939494" d="M 269.5,488.5 C 260.833,488.5 252.167,488.5 243.5,488.5C 243.823,494.69 243.49,500.69 242.5,506.5C 242.5,500.167 242.5,493.833 242.5,487.5C 251.682,487.173 260.682,487.507 269.5,488.5 Z"/></g>
<g><path style="opacity:1" fill="#868687" d="M 289.5,491.5 C 290.161,493.134 290.494,494.967 290.5,497C 290.64,500.15 289.973,502.983 288.5,505.5C 289.229,500.87 289.563,496.203 289.5,491.5 Z"/></g>
</svg>
