<?xml version="1.0" encoding="UTF-8"?>
<!DOCTYPE svg PUBLIC "-//W3C//DTD SVG 1.1//EN" "http://www.w3.org/Graphics/SVG/1.1/DTD/svg11.dtd">
<svg xmlns="http://www.w3.org/2000/svg" version="1.1" width="90px" height="63px" style="shape-rendering:geometricPrecision; text-rendering:geometricPrecision; image-rendering:optimizeQuality; fill-rule:evenodd; clip-rule:evenodd" xmlns:xlink="http://www.w3.org/1999/xlink">
<g><path style="opacity:0.76" fill="#020202" d="M 27.5,14.5 C 29.5816,14.6243 31.0816,15.6243 32,17.5C 33.883,16.3474 34.7163,14.6807 34.5,12.5C 33.0222,12.762 31.6888,12.4287 30.5,11.5C 32.1792,10.218 34.0126,9.21799 36,8.5C 36.8221,6.21151 37.4888,3.87818 38,1.5C 38.7175,0.549434 39.5509,0.382767 40.5,1C 39.8045,6.47802 38.9712,11.978 38,17.5C 34.1914,22.6419 29.6914,27.1419 24.5,31C 26.9464,33.4715 28.9464,36.3048 30.5,39.5C 29.9149,42.5027 29.2482,45.5027 28.5,48.5C 25.993,53.4194 22.993,57.2527 19.5,60C 17.4144,60.6266 17.0811,60.1266 18.5,58.5C 16.5927,53.929 14.2593,49.5956 11.5,45.5C 12.2217,43.0557 13.2217,40.7223 14.5,38.5C 12.9223,37.7022 11.2556,37.2022 9.5,37C 8.64332,36.3109 7.97665,35.4776 7.5,34.5C 10.6584,32.7604 12.9917,30.2604 14.5,27C 15.8333,26.3333 17.1667,25.6667 18.5,25C 15.9981,21.9324 15.9981,18.7658 18.5,15.5C 19.4656,17.396 19.7989,19.396 19.5,21.5C 25.3335,22.6627 28.0002,20.3294 27.5,14.5 Z"/></g>
<g><path style="opacity:0.004" fill="#000000" d="M 27.5,14.5 C 26.8333,13.1667 26.8333,13.1667 27.5,14.5 Z"/></g>
<g><path style="opacity:1" fill="#9d9d9d" d="M 14.5,29.5 C 16.337,29.6395 16.6704,30.3061 15.5,31.5C 14.7025,31.0431 14.3691,30.3764 14.5,29.5 Z"/></g>
<g><path style="opacity:0.616" fill="#000000" d="M 36.5,34.5 C 40.8863,33.7691 43.7196,35.4358 45,39.5C 45.4935,37.8659 45.6602,36.1992 45.5,34.5C 48.1667,34.5 50.8333,34.5 53.5,34.5C 53.5,35.8333 53.5,37.1667 53.5,38.5C 54.5,38.5 55.5,38.5 56.5,38.5C 56.5,37.1667 56.5,35.8333 56.5,34.5C 57.8333,34.5 59.1667,34.5 60.5,34.5C 59.935,45.8504 61.1017,46.1837 64,35.5C 65.4936,34.2528 66.9936,34.2528 68.5,35.5C 71.8797,47.5988 73.213,47.2654 72.5,34.5C 75.6852,34.0196 78.5185,34.6863 81,36.5C 81.8632,38.7489 81.3632,40.5822 79.5,42C 81.6312,43.8881 81.6312,45.3881 79.5,46.5C 78.3527,46.1822 77.5194,45.5156 77,44.5C 73.654,46.9867 70.154,46.9867 66.5,44.5C 63.3582,46.1187 60.0248,46.7854 56.5,46.5C 56.5,45.1667 56.5,43.8333 56.5,42.5C 55.5,42.5 54.5,42.5 53.5,42.5C 53.5,43.8333 53.5,45.1667 53.5,46.5C 50.8333,46.5 48.1667,46.5 45.5,46.5C 45.7895,42.446 45.1229,41.946 43.5,45C 36.2434,47.7463 33.0768,45.2463 34,37.5C 35.045,36.6266 35.8783,35.6266 36.5,34.5 Z M 37.5,38.5 C 41.8383,38.6219 42.1716,38.9553 38.5,39.5C 37.9553,43.1716 37.6219,42.8383 37.5,38.5 Z"/></g>
<g><path style="opacity:1" fill="#575757" d="M 21.5,41.5 C 22.791,41.2627 23.791,41.596 24.5,42.5C 22.2075,42.2436 20.0408,42.5769 18,43.5C 17.8333,43.1667 17.6667,42.8333 17.5,42.5C 18.6888,41.5713 20.0222,41.238 21.5,41.5 Z"/></g>
<g><path style="opacity:1" fill="#cdcdcd" d="M 21.5,41.5 C 20.0222,41.238 18.6888,41.5713 17.5,42.5C 17.6667,42.8333 17.8333,43.1667 18,43.5C 20.0408,42.5769 22.2075,42.2436 24.5,42.5C 25.224,44.2184 25.8906,46.0517 26.5,48C 26,48.1667 25.5,48.3333 25,48.5C 22.9442,47.0701 22.1109,45.4034 22.5,43.5C 20.5607,45.6176 18.394,45.951 16,44.5C 15.1782,41.4834 16.3449,39.8167 19.5,39.5C 20.7133,39.7472 21.38,40.4138 21.5,41.5 Z"/></g>
</svg>
