<?xml version="1.0" encoding="UTF-8"?>
<!DOCTYPE svg PUBLIC "-//W3C//DTD SVG 1.1//EN" "http://www.w3.org/Graphics/SVG/1.1/DTD/svg11.dtd">
<svg xmlns="http://www.w3.org/2000/svg" version="1.1" width="90px" height="63px" style="shape-rendering:geometricPrecision; text-rendering:geometricPrecision; image-rendering:optimizeQuality; fill-rule:evenodd; clip-rule:evenodd" xmlns:xlink="http://www.w3.org/1999/xlink">
<g><path style="opacity:0.96" fill="#f8f6f9" d="M 27.5,14.5 C 29.5816,14.6243 31.0816,15.6243 32,17.5C 33.883,16.3474 34.7163,14.6807 34.5,12.5C 33.0222,12.762 31.6888,12.4287 30.5,11.5C 31.9122,10.1936 33.5789,9.36029 35.5,9C 36.7143,6.64936 37.5477,4.14936 38,1.5C 38.8928,0.288818 39.7261,0.288818 40.5,1.5C 39.8164,6.84244 38.9831,12.1758 38,17.5C 34.1914,22.6419 29.6914,27.1419 24.5,31C 25.4162,31.3742 26.2496,31.8742 27,32.5C 28.149,34.9902 29.3156,37.4902 30.5,40C 29.2766,48.6816 25.6099,55.3483 19.5,60C 17.4144,60.6266 17.0811,60.1266 18.5,58.5C 16.4168,53.9983 14.0835,49.665 11.5,45.5C 12.2217,43.0557 13.2217,40.7223 14.5,38.5C 12.9223,37.7022 11.2556,37.2022 9.5,37C 8.64332,36.3109 7.97665,35.4776 7.5,34.5C 10.6584,32.7604 12.9917,30.2604 14.5,27C 15.8333,26.3333 17.1667,25.6667 18.5,25C 15.9981,21.9324 15.9981,18.7658 18.5,15.5C 19.4656,17.396 19.7989,19.396 19.5,21.5C 25.3335,22.6627 28.0002,20.3294 27.5,14.5 Z"/></g>
<g><path style="opacity:0.004" fill="#d8d7d9" d="M 27.5,14.5 C 26.8333,13.1667 26.8333,13.1667 27.5,14.5 Z"/></g>
<g><path style="opacity:0.902" fill="#f9f8fa" d="M 36.5,34.5 C 40.8863,33.7691 43.7196,35.4358 45,39.5C 45.4935,37.8659 45.6602,36.1992 45.5,34.5C 48.1667,34.5 50.8333,34.5 53.5,34.5C 53.5,35.8333 53.5,37.1667 53.5,38.5C 54.5,38.5 55.5,38.5 56.5,38.5C 56.5,37.1667 56.5,35.8333 56.5,34.5C 57.8333,34.5 59.1667,34.5 60.5,34.5C 59.935,45.8504 61.1017,46.1837 64,35.5C 65.4936,34.2528 66.9936,34.2528 68.5,35.5C 69.6667,38.5 70.8333,41.5 72,44.5C 72.4983,41.1832 72.665,37.8499 72.5,34.5C 75.6852,34.0196 78.5185,34.6863 81,36.5C 81.8632,38.7489 81.3632,40.5822 79.5,42C 81.0368,43.1096 81.7035,44.6096 81.5,46.5C 79.549,46.7733 78.049,46.1066 77,44.5C 73.4175,47.0193 69.7509,47.0193 66,44.5C 63.0647,46.1916 59.8981,46.8583 56.5,46.5C 56.5,45.1667 56.5,43.8333 56.5,42.5C 55.5,42.5 54.5,42.5 53.5,42.5C 53.5,43.8333 53.5,45.1667 53.5,46.5C 50.8333,46.5 48.1667,46.5 45.5,46.5C 45.6567,45.1266 45.49,43.7932 45,42.5C 41.8295,47.4141 38.1628,47.7475 34,43.5C 32.9271,39.9003 33.7605,36.9003 36.5,34.5 Z M 37.5,38.5 C 38.552,38.3505 39.552,38.5172 40.5,39C 39.1509,39.7724 38.3176,40.9391 38,42.5C 37.51,41.2068 37.3433,39.8734 37.5,38.5 Z"/></g>
<g><path style="opacity:1" fill="#727071" d="M 16.5,40.5 C 22.1667,40.6636 22.5,40.9969 17.5,41.5C 17.281,42.675 17.6143,43.675 18.5,44.5C 20.5225,42.8267 22.8559,42.1601 25.5,42.5C 25.7251,46.0562 24.8918,46.3895 23,43.5C 21.0683,45.1779 18.9017,45.6779 16.5,45C 15.2721,43.5098 15.2721,42.0098 16.5,40.5 Z"/></g>
</svg>
